# xmcd
#
# Track frame offsets:
#	150
#	11980
#	25055
#	36820
#	49710
#	60810
#	74422
#	86475
#	104487
#	124254
#	138950
#	155359
#	168709
#	179240
#	191850
#	205592
#
# Disc length: 2883 seconds
#
# Revision: 1
# Processed by: cddbd v1.4PL0 Copyright (c) Steve Scherf et al.
# Submitted via: audiograbber 1.80
#
DISCID=e20b4110
DTITLE=Ladysmith Black Mambazo - Gospel Songs Disk 2
DYEAR=1900
DGENRE=
TTITLE0=You are Lucky
TTITLE1=Zulu's Love One Another
TTITLE2=The Tugela River
TTITLE3=The Boy that Runs Away
TTITLE4=Behold My Heart
TTITLE5=The Cross is Precious
TTITLE6=Our Father We have Entered
TTITLE7=The Wonder of the World
TTITLE8=Our Hearts
TTITLE9=It is the Blood of Sacrifices
TTITLE10=In heaven
TTITLE11=Where is a Friend Like Jesus
TTITLE12=You Bore our Sins Jesus
TTITLE13=What Will Purify Me?
TTITLE14=Wake Up Jonas, Let Us Pray
TTITLE15=When I See the Saviour
EXTD=
EXTT0=
EXTT1=
EXTT2=
EXTT3=
EXTT4=
EXTT5=
EXTT6=
EXTT7=
EXTT8=
EXTT9=
EXTT10=
EXTT11=
EXTT12=
EXTT13=
EXTT14=
EXTT15=
PLAYORDER=
